<mxfile host="app.diagrams.net" modified="2021-08-04T11:13:00.079Z" agent="5.0 (Windows)" etag="kXDo4dMt0cJkGrTtnx10" version="14.9.3" type="github">
  <diagram id="RBxbnGtT7s4qhol64Fa-" name="Page-1">
    <mxGraphModel dx="1038" dy="508" grid="1" gridSize="10" guides="1" tooltips="1" connect="1" arrows="1" fold="1" page="1" pageScale="1" pageWidth="1169" pageHeight="827" math="0" shadow="0">
      <root>
        <mxCell id="0" />
        <mxCell id="1" parent="0" />
        <mxCell id="Du5uzGh4PVikDXq3MupA-1" value="Grievances handling" style="swimlane;fontStyle=0" vertex="1" parent="1">
          <mxGeometry x="10" y="10" width="940" height="740" as="geometry" />
        </mxCell>
        <mxCell id="Du5uzGh4PVikDXq3MupA-2" value="Start" style="rounded=1;whiteSpace=wrap;html=1;" vertex="1" parent="Du5uzGh4PVikDXq3MupA-1">
          <mxGeometry x="220" y="40" width="120" height="60" as="geometry" />
        </mxCell>
        <mxCell id="Du5uzGh4PVikDXq3MupA-7" value="" style="edgeStyle=orthogonalEdgeStyle;rounded=0;orthogonalLoop=1;jettySize=auto;html=1;" edge="1" parent="Du5uzGh4PVikDXq3MupA-1" source="Du5uzGh4PVikDXq3MupA-5" target="Du5uzGh4PVikDXq3MupA-6">
          <mxGeometry relative="1" as="geometry" />
        </mxCell>
        <mxCell id="Du5uzGh4PVikDXq3MupA-5" value="&lt;span lang=&quot;EN-GB&quot;&gt;Employee registers grievance / problem in the system and submits to DCS/HRMs&lt;/span&gt;" style="rounded=0;whiteSpace=wrap;html=1;" vertex="1" parent="Du5uzGh4PVikDXq3MupA-1">
          <mxGeometry x="190" y="170" width="180" height="70" as="geometry" />
        </mxCell>
        <mxCell id="Du5uzGh4PVikDXq3MupA-4" value="" style="edgeStyle=orthogonalEdgeStyle;rounded=0;orthogonalLoop=1;jettySize=auto;html=1;" edge="1" parent="Du5uzGh4PVikDXq3MupA-1" source="Du5uzGh4PVikDXq3MupA-2" target="Du5uzGh4PVikDXq3MupA-5">
          <mxGeometry relative="1" as="geometry">
            <mxPoint x="280" y="180" as="targetPoint" />
          </mxGeometry>
        </mxCell>
        <mxCell id="Du5uzGh4PVikDXq3MupA-9" value="" style="edgeStyle=orthogonalEdgeStyle;rounded=0;orthogonalLoop=1;jettySize=auto;html=1;" edge="1" parent="Du5uzGh4PVikDXq3MupA-1" source="Du5uzGh4PVikDXq3MupA-6" target="Du5uzGh4PVikDXq3MupA-8">
          <mxGeometry relative="1" as="geometry" />
        </mxCell>
        <mxCell id="Du5uzGh4PVikDXq3MupA-6" value="&lt;span lang=&quot;EN-GB&quot;&gt;DCS/HRM reviews the grievance &lt;br&gt;&lt;/span&gt;" style="whiteSpace=wrap;html=1;rounded=0;" vertex="1" parent="Du5uzGh4PVikDXq3MupA-1">
          <mxGeometry x="215" y="290" width="130" height="70" as="geometry" />
        </mxCell>
        <mxCell id="Du5uzGh4PVikDXq3MupA-11" value="" style="edgeStyle=orthogonalEdgeStyle;rounded=0;orthogonalLoop=1;jettySize=auto;html=1;" edge="1" parent="Du5uzGh4PVikDXq3MupA-1" source="Du5uzGh4PVikDXq3MupA-8" target="Du5uzGh4PVikDXq3MupA-10">
          <mxGeometry relative="1" as="geometry" />
        </mxCell>
        <mxCell id="Du5uzGh4PVikDXq3MupA-31" value="" style="edgeStyle=orthogonalEdgeStyle;rounded=0;orthogonalLoop=1;jettySize=auto;html=1;" edge="1" parent="Du5uzGh4PVikDXq3MupA-1" source="Du5uzGh4PVikDXq3MupA-8" target="Du5uzGh4PVikDXq3MupA-16">
          <mxGeometry relative="1" as="geometry" />
        </mxCell>
        <mxCell id="Du5uzGh4PVikDXq3MupA-8" value="&lt;div&gt;Requires&lt;/div&gt;&lt;div&gt;Committee?&lt;br&gt;&lt;/div&gt;" style="rhombus;whiteSpace=wrap;html=1;rounded=0;" vertex="1" parent="Du5uzGh4PVikDXq3MupA-1">
          <mxGeometry x="215" y="420" width="130" height="80" as="geometry" />
        </mxCell>
        <mxCell id="Du5uzGh4PVikDXq3MupA-15" value="" style="edgeStyle=orthogonalEdgeStyle;rounded=0;orthogonalLoop=1;jettySize=auto;html=1;" edge="1" parent="Du5uzGh4PVikDXq3MupA-1" source="Du5uzGh4PVikDXq3MupA-10" target="Du5uzGh4PVikDXq3MupA-14">
          <mxGeometry relative="1" as="geometry" />
        </mxCell>
        <mxCell id="Du5uzGh4PVikDXq3MupA-10" value="Grievance committee is appointed" style="whiteSpace=wrap;html=1;rounded=0;" vertex="1" parent="Du5uzGh4PVikDXq3MupA-1">
          <mxGeometry x="220" y="590" width="120" height="60" as="geometry" />
        </mxCell>
        <mxCell id="Du5uzGh4PVikDXq3MupA-12" value="yes" style="text;html=1;strokeColor=none;fillColor=none;align=center;verticalAlign=middle;whiteSpace=wrap;rounded=0;" vertex="1" parent="Du5uzGh4PVikDXq3MupA-1">
          <mxGeometry x="273" y="525" width="40" height="20" as="geometry" />
        </mxCell>
        <mxCell id="Du5uzGh4PVikDXq3MupA-17" value="" style="edgeStyle=orthogonalEdgeStyle;rounded=0;orthogonalLoop=1;jettySize=auto;html=1;" edge="1" parent="Du5uzGh4PVikDXq3MupA-1" source="Du5uzGh4PVikDXq3MupA-14" target="Du5uzGh4PVikDXq3MupA-16">
          <mxGeometry relative="1" as="geometry" />
        </mxCell>
        <mxCell id="Du5uzGh4PVikDXq3MupA-14" value="&lt;span lang=&quot;EN-GB&quot;&gt;Grievance committee conducts investigations, compiles report and forwards to DCS/HRM&lt;/span&gt;" style="rounded=0;whiteSpace=wrap;html=1;" vertex="1" parent="Du5uzGh4PVikDXq3MupA-1">
          <mxGeometry x="460" y="580" width="170" height="80" as="geometry" />
        </mxCell>
        <mxCell id="Du5uzGh4PVikDXq3MupA-19" value="" style="edgeStyle=orthogonalEdgeStyle;rounded=0;orthogonalLoop=1;jettySize=auto;html=1;" edge="1" parent="Du5uzGh4PVikDXq3MupA-1" source="Du5uzGh4PVikDXq3MupA-16" target="Du5uzGh4PVikDXq3MupA-18">
          <mxGeometry relative="1" as="geometry" />
        </mxCell>
        <mxCell id="Du5uzGh4PVikDXq3MupA-16" value="&lt;span lang=&quot;EN-GB&quot;&gt;DCS/HRM considers recommendations and prepares response to CEO&lt;/span&gt;" style="whiteSpace=wrap;html=1;rounded=0;" vertex="1" parent="Du5uzGh4PVikDXq3MupA-1">
          <mxGeometry x="465" y="420" width="160" height="80" as="geometry" />
        </mxCell>
        <mxCell id="Du5uzGh4PVikDXq3MupA-21" value="" style="edgeStyle=orthogonalEdgeStyle;rounded=0;orthogonalLoop=1;jettySize=auto;html=1;" edge="1" parent="Du5uzGh4PVikDXq3MupA-1" source="Du5uzGh4PVikDXq3MupA-18" target="Du5uzGh4PVikDXq3MupA-20">
          <mxGeometry relative="1" as="geometry" />
        </mxCell>
        <mxCell id="Du5uzGh4PVikDXq3MupA-26" value="" style="edgeStyle=orthogonalEdgeStyle;rounded=0;orthogonalLoop=1;jettySize=auto;html=1;" edge="1" parent="Du5uzGh4PVikDXq3MupA-1" source="Du5uzGh4PVikDXq3MupA-18" target="Du5uzGh4PVikDXq3MupA-25">
          <mxGeometry relative="1" as="geometry" />
        </mxCell>
        <mxCell id="Du5uzGh4PVikDXq3MupA-18" value="&lt;div&gt;Approved &lt;br&gt;&lt;/div&gt;&lt;div&gt;by CEO?&lt;/div&gt;" style="rhombus;whiteSpace=wrap;html=1;rounded=0;" vertex="1" parent="Du5uzGh4PVikDXq3MupA-1">
          <mxGeometry x="485" y="250" width="120" height="80" as="geometry" />
        </mxCell>
        <mxCell id="Du5uzGh4PVikDXq3MupA-23" value="" style="edgeStyle=orthogonalEdgeStyle;rounded=0;orthogonalLoop=1;jettySize=auto;html=1;entryX=1;entryY=0.5;entryDx=0;entryDy=0;exitX=0.55;exitY=0.813;exitDx=0;exitDy=0;exitPerimeter=0;" edge="1" parent="Du5uzGh4PVikDXq3MupA-1" source="Du5uzGh4PVikDXq3MupA-20" target="Du5uzGh4PVikDXq3MupA-16">
          <mxGeometry relative="1" as="geometry">
            <mxPoint x="745" y="420" as="targetPoint" />
            <Array as="points">
              <mxPoint x="751" y="460" />
            </Array>
          </mxGeometry>
        </mxCell>
        <mxCell id="Du5uzGh4PVikDXq3MupA-20" value="Comments" style="shape=document;whiteSpace=wrap;html=1;boundedLbl=1;rounded=0;" vertex="1" parent="Du5uzGh4PVikDXq3MupA-1">
          <mxGeometry x="710" y="250" width="120" height="80" as="geometry" />
        </mxCell>
        <mxCell id="Du5uzGh4PVikDXq3MupA-24" value="no" style="text;html=1;strokeColor=none;fillColor=none;align=center;verticalAlign=middle;whiteSpace=wrap;rounded=0;" vertex="1" parent="Du5uzGh4PVikDXq3MupA-1">
          <mxGeometry x="640" y="270" width="40" height="20" as="geometry" />
        </mxCell>
        <mxCell id="Du5uzGh4PVikDXq3MupA-25" value="&lt;span lang=&quot;EN-GB&quot;&gt;DCS/HRM implements decisions of the CEO &lt;/span&gt;" style="whiteSpace=wrap;html=1;rounded=0;" vertex="1" parent="Du5uzGh4PVikDXq3MupA-1">
          <mxGeometry x="470" y="100" width="150" height="80" as="geometry" />
        </mxCell>
        <mxCell id="Du5uzGh4PVikDXq3MupA-29" value="End" style="rounded=1;whiteSpace=wrap;html=1;" vertex="1" parent="Du5uzGh4PVikDXq3MupA-1">
          <mxGeometry x="730" y="110" width="120" height="60" as="geometry" />
        </mxCell>
        <mxCell id="Du5uzGh4PVikDXq3MupA-28" value="" style="edgeStyle=orthogonalEdgeStyle;rounded=0;orthogonalLoop=1;jettySize=auto;html=1;entryX=0;entryY=0.5;entryDx=0;entryDy=0;" edge="1" parent="Du5uzGh4PVikDXq3MupA-1" source="Du5uzGh4PVikDXq3MupA-25" target="Du5uzGh4PVikDXq3MupA-29">
          <mxGeometry relative="1" as="geometry">
            <mxPoint x="715" y="140" as="targetPoint" />
          </mxGeometry>
        </mxCell>
        <mxCell id="Du5uzGh4PVikDXq3MupA-33" value="yes" style="text;html=1;strokeColor=none;fillColor=none;align=center;verticalAlign=middle;whiteSpace=wrap;rounded=0;" vertex="1" parent="Du5uzGh4PVikDXq3MupA-1">
          <mxGeometry x="540" y="210" width="40" height="20" as="geometry" />
        </mxCell>
        <mxCell id="Du5uzGh4PVikDXq3MupA-32" value="no" style="text;html=1;strokeColor=none;fillColor=none;align=center;verticalAlign=middle;whiteSpace=wrap;rounded=0;" vertex="1" parent="1">
          <mxGeometry x="390" y="451" width="40" height="20" as="geometry" />
        </mxCell>
      </root>
    </mxGraphModel>
  </diagram>
</mxfile>
